<svg width="50" height="50" viewBox="0 0 50 50" fill="none" xmlns="http://www.w3.org/2000/svg">
<circle cx="25" cy="25" r="25" fill="#027F25"/>
<path d="M30.402 33H18.962V30.608C21.0593 28.5627 22.5067 27.0807 23.304 26.162C25.4533 23.7007 26.528 21.6293 26.528 19.948C26.528 19.2027 26.3287 18.622 25.93 18.206C25.5313 17.79 24.9593 17.582 24.214 17.582C22.8793 17.582 22.004 18.3967 21.588 20.026L19.092 18.908C19.3347 17.5733 19.9413 16.5247 20.912 15.762C21.9 14.982 23.1133 14.592 24.552 14.592C26.1813 14.592 27.4467 15.06 28.348 15.996C29.2493 16.9147 29.7 18.0327 29.7 19.35C29.7 20.286 29.5007 21.2827 29.102 22.34C28.7033 23.3627 28.244 24.2553 27.724 25.018C27.1867 25.8153 26.554 26.5953 25.826 27.358C25.202 28.0513 24.63 28.6407 24.11 29.126C23.85 29.3687 23.4253 29.7327 22.836 30.218H30.402V33Z" fill="white"/>
</svg>
