<svg width="50" height="50" viewBox="0 0 50 50" fill="none" xmlns="http://www.w3.org/2000/svg">
<circle cx="25" cy="25" r="25" fill="#027F25"/>
<path d="M23.5315 32.9735C22.1968 32.9735 21.0182 32.7048 19.9955 32.1675C18.9902 31.6128 18.2448 30.8588 17.7595 29.9055L19.4495 27.7215C20.4722 29.2295 21.7722 29.9835 23.3495 29.9835C24.2682 29.9835 24.9875 29.7495 25.5075 29.2815C26.0275 28.8135 26.2875 28.2068 26.2875 27.4615C26.2875 26.6295 25.9842 25.9968 25.3775 25.5635C24.7882 25.1128 23.9648 24.8875 22.9075 24.8875H21.6075V21.8975H22.7775C23.5748 21.8975 24.2422 21.6635 24.7795 21.1955C25.3168 20.7275 25.5855 20.1295 25.5855 19.4015C25.5855 18.7082 25.3862 18.1708 24.9875 17.7895C24.5888 17.3908 24.0168 17.1915 23.2715 17.1915C21.8675 17.1915 20.7235 17.8415 19.8395 19.1415L18.1755 17.0355C19.1808 15.1462 20.9748 14.2015 23.5575 14.2015C25.1348 14.2015 26.4002 14.6262 27.3535 15.4755C28.3068 16.3075 28.7835 17.4255 28.7835 18.8295C28.7835 20.8922 27.8562 22.3308 26.0015 23.1455V23.2235C27.0935 23.4142 27.9428 23.9082 28.5495 24.7055C29.1735 25.4855 29.4855 26.4388 29.4855 27.5655C29.4855 29.2122 28.9222 30.5295 27.7955 31.5175C26.6688 32.4882 25.2475 32.9735 23.5315 32.9735Z" fill="white"/>
</svg>
