<svg width="62" height="74" viewBox="0 0 62 74" fill="none" xmlns="http://www.w3.org/2000/svg">
<path fill-rule="evenodd" clip-rule="evenodd" d="M0.5 0.5H39.8821L61.5 21.7843V69.9995C61.5 69.9998 61.5 70 58 70L61.5 69.9995V73.5H0.5V0.5ZM54.5 66.5V24.7157L37.0144 7.5H7.5V66.5H54.5Z" fill="#F6A607"/>
<path fill-rule="evenodd" clip-rule="evenodd" d="M38.448 0.5C40.381 0.5 41.948 2.067 41.948 4V19.75H57.9997C59.9327 19.75 61.4997 21.317 61.4997 23.25C61.4997 25.183 59.9327 26.75 57.9997 26.75H34.948V4C34.948 2.067 36.515 0.5 38.448 0.5Z" fill="#F6A607"/>
<path fill-rule="evenodd" clip-rule="evenodd" d="M45.5 46H16V39H45.5V46Z" fill="#F6A607"/>
<path fill-rule="evenodd" clip-rule="evenodd" d="M45.5 59H16V52H45.5V59Z" fill="#F6A607"/>
</svg>
