<svg width="82" height="70" viewBox="0 0 82 70" fill="none" xmlns="http://www.w3.org/2000/svg">
<g clip-path="url(#clip0_904_975)">
<path d="M33.0961 7.41493C35.5841 4.94202 38.0115 2.40464 40.5603 0C43.2267 2.45774 45.8437 4.97237 48.5176 7.41873C45.8323 9.84991 43.2304 12.3721 40.5679 14.8299C38.0078 12.4328 35.5917 9.88405 33.0961 7.41493Z" fill="#F6A607"/>
<path d="M38.5956 17.2915C34.158 17.5608 29.709 18.0197 25.4004 19.1538C15.9715 21.4029 7.24805 26.1818 0 32.5841C3.68661 41.5351 7.73353 50.3837 10.3126 59.7406C12.8083 59.8771 15.3116 59.7823 17.811 59.805C14.4544 51.3585 10.7678 43.0333 7.52872 34.5412C8.4845 33.9343 9.41753 33.2896 10.3392 32.6372C13.8741 40.7728 17.2155 48.9918 20.6898 57.1539C21.27 58.58 22.6241 59.8354 24.2398 59.7937C29.0263 59.824 33.8129 59.8164 38.5994 59.7899C38.5994 45.6238 38.6108 31.4576 38.5956 17.2915ZM26.2728 52.8301C23.0413 45.1572 20.0336 37.382 16.8363 29.694C21.5659 27.6117 26.5648 26.1705 31.6434 25.2109C31.6661 34.9053 31.613 44.5997 31.6699 54.2941C29.819 54.2979 27.2399 54.9427 26.2728 52.8301Z" fill="#F6A607"/>
<path d="M60.7607 20.6403C54.8971 18.5581 48.6996 17.625 42.506 17.2837C42.506 31.4574 42.5287 45.6311 42.506 59.8048C47.2963 59.7972 52.0866 59.8352 56.8769 59.7934C58.5951 59.839 59.9567 58.447 60.5332 56.9337C63.9012 48.8474 67.3564 40.7953 70.6827 32.6901C71.6802 33.2628 72.6436 33.8924 73.5918 34.5447C73.1518 35.986 72.5374 37.3704 71.9571 38.7623C69.0746 45.779 66.1731 52.7843 63.2943 59.801C65.4449 59.8124 67.5916 59.8124 69.7421 59.801C73.698 50.7855 77.8094 41.8193 81.0674 32.5232C75.0938 27.3801 68.2705 23.1322 60.7645 20.6403H60.7607ZM63.3209 31.9998C60.7835 38.2238 58.2765 44.4629 55.758 50.6983C55.227 52.0296 54.7909 53.6719 53.3117 54.2484C52.0373 54.457 50.7364 54.3242 49.4506 54.3356C49.4885 44.6298 49.4734 34.924 49.4506 25.222C54.4419 26.1513 59.3802 27.5243 64.015 29.6065C64.197 30.4068 63.5409 31.2185 63.3247 31.9998H63.3209Z" fill="#F6A607"/>
<path d="M11.7463 63.1692C31.0896 63.1692 50.4329 63.1654 69.7763 63.1692V70H11.7463V63.1692Z" fill="#F6A607"/>
</g>
<defs>
<clipPath id="clip0_904_975">
<rect width="81.0636" height="70" fill="white"/>
</clipPath>
</defs>
</svg>
