<svg width="82" height="62" viewBox="0 0 82 62" fill="none" xmlns="http://www.w3.org/2000/svg">
<path fill-rule="evenodd" clip-rule="evenodd" d="M0.5 12C0.5 5.64872 5.64873 0.5 12 0.5H70C76.3513 0.5 81.5 5.64873 81.5 12V50C81.5 56.3513 76.3513 61.5 70 61.5H12C5.64873 61.5 0.5 56.3513 0.5 50V12ZM12 7.5C9.51472 7.5 7.5 9.51472 7.5 12V50C7.5 52.4853 9.51472 54.5 12 54.5H70C72.4853 54.5 74.5 52.4853 74.5 50V12C74.5 9.51472 72.4853 7.5 70 7.5H12Z" fill="#F6A607"/>
<path fill-rule="evenodd" clip-rule="evenodd" d="M76 25H5V18H76V25Z" fill="#F6A607"/>
<path fill-rule="evenodd" clip-rule="evenodd" d="M28 46H16V39H28V46Z" fill="#F6A607"/>
<path fill-rule="evenodd" clip-rule="evenodd" d="M47 46H35V39H47V46Z" fill="#F6A607"/>
</svg>
