<svg width="48" height="57" viewBox="0 0 48 57" fill="none" xmlns="http://www.w3.org/2000/svg">
<path fill-rule="evenodd" clip-rule="evenodd" d="M0.277832 0.222656H30.9084L47.7223 16.7771V54.2779C47.7223 54.2781 47.7223 54.2782 45.0001 54.2782L47.7223 54.2779V57.0004H0.277832V0.222656ZM42.2778 51.556V19.0571L28.6779 5.6671H5.72228V51.556H42.2778Z" fill="#F6A607"/>
<path fill-rule="evenodd" clip-rule="evenodd" d="M29.793 0.222656C31.2965 0.222656 32.5152 1.44144 32.5152 2.94488V15.1949H44.9999C46.5034 15.1949 47.7221 16.4137 47.7221 17.9171C47.7221 19.4205 46.5034 20.6393 44.9999 20.6393H27.0708V2.94488C27.0708 1.44144 28.2896 0.222656 29.793 0.222656Z" fill="#F6A607"/>
<path fill-rule="evenodd" clip-rule="evenodd" d="M33.9626 30.1276L17.7385 46.3518L13.8887 42.502L30.1128 26.2778L33.9626 30.1276Z" fill="#F6A607"/>
<path fill-rule="evenodd" clip-rule="evenodd" d="M30.1131 46.3523L13.889 30.1281L17.7388 26.2783L33.9629 42.5025L30.1131 46.3523Z" fill="#F6A607"/>
</svg>
