<svg width="56" height="56" viewBox="0 0 56 56" fill="none" xmlns="http://www.w3.org/2000/svg">
<path d="M12.0553 25.6825L24.3997 37.217L49.3887 11.6665" stroke="#F6A607" stroke-width="5.44444"/>
<path fill-rule="evenodd" clip-rule="evenodd" d="M27.8056 5.44444C15.4559 5.44444 5.44444 15.4559 5.44444 27.8056C5.44444 40.1553 15.4559 50.1667 27.8056 50.1667C40.1553 50.1667 50.1667 40.1553 50.1667 27.8056C50.1667 15.4559 40.1553 5.44444 27.8056 5.44444ZM0 27.8056C0 12.449 12.449 0 27.8056 0C43.1621 0 55.6111 12.449 55.6111 27.8056C55.6111 43.1621 43.1621 55.6111 27.8056 55.6111C12.449 55.6111 0 43.1621 0 27.8056Z" fill="#F6A607"/>
</svg>
