<svg width="76" height="66" viewBox="0 0 76 66" fill="none" xmlns="http://www.w3.org/2000/svg">
<circle cx="38" cy="59.5" r="6" fill="#F6A607"/>
<path fill-rule="evenodd" clip-rule="evenodd" d="M62.0216 35.2368L65.8125 29.1983C58.4532 22.549 48.6994 18.5 38 18.5C27.3006 18.5 17.5468 22.549 10.1875 29.1984L13.9784 35.2368C20.19 29.2102 28.6617 25.5 38 25.5C47.3383 25.5 55.81 29.2101 62.0216 35.2368Z" fill="#F6A607"/>
<path fill-rule="evenodd" clip-rule="evenodd" d="M51.5725 51.8805L55.6549 45.3777C51.4463 39.9749 44.8789 36.5 37.4998 36.5C30.4423 36.5 24.1273 39.6787 19.9082 44.6825L23.9082 51.0539C26.7325 46.5186 31.7636 43.5 37.4998 43.5C43.5778 43.5 48.8642 46.889 51.5725 51.8805Z" fill="#F6A607"/>
<path fill-rule="evenodd" clip-rule="evenodd" d="M71.4934 20.1488L75.2538 14.1591C65.0228 5.63071 51.8604 0.5 37.4997 0.5C23.4457 0.5 10.5395 5.41382 0.405274 13.6171L4.15783 19.5944C13.1845 12.0444 24.8114 7.5 37.4997 7.5C50.4956 7.5 62.378 12.2674 71.4934 20.1488Z" fill="#F6A607"/>
</svg>
