<svg width="70" height="78" viewBox="0 0 70 78" fill="none" xmlns="http://www.w3.org/2000/svg">
<path d="M4 47.333C4 37.9049 4 33.1909 6.92893 30.2619C9.85786 27.333 14.5719 27.333 24 27.333H46.2222C55.6503 27.333 60.3644 27.333 63.2933 30.2619C66.2222 33.1909 66.2222 37.9049 66.2222 47.333V53.9997C66.2222 63.4278 66.2222 68.1418 63.2933 71.0707C60.3644 73.9997 55.6503 73.9997 46.2222 73.9997H24C14.5719 73.9997 9.85786 73.9997 6.92893 71.0707C4 68.1418 4 63.4278 4 53.9997V47.333Z" stroke="#F6A607" stroke-width="7"/>
<path d="M50.6668 23.4444V19.5555C50.6668 10.9644 43.7023 4 35.1112 4V4C26.5201 4 19.5557 10.9645 19.5557 19.5555V23.4444" stroke="#F6A607" stroke-width="7" stroke-linecap="round"/>
<path fill-rule="evenodd" clip-rule="evenodd" d="M38 47L38 62L32 62L32 47L38 47Z" fill="#F6A607"/>
<circle cx="35" cy="45" r="6" fill="#F6A607"/>
</svg>
