<svg width="171" height="40" viewBox="0 0 171 40" fill="none" xmlns="http://www.w3.org/2000/svg">
<g clip-path="url(#clip0_268_2716)">
<path d="M88.1975 39.6235H84.5793V24.3516H88.1975V34.0168L94.8503 24.3516H98.4684V39.6235H94.8503V29.9583L88.1975 39.6235Z" fill="white"/>
<path d="M113.991 24.3516V39.6235H110.373V34.3516C109.323 34.9373 108.156 35.2302 106.833 35.2302C103.254 35.2302 101.698 33.18 101.698 29.2051V24.3516H105.588V28.7867C105.588 30.6696 106.327 31.5901 107.883 31.5901C108.895 31.5901 109.712 31.3808 110.373 30.9624V24.3516H113.991Z" fill="white"/>
<path d="M127.919 39.6235V33.7658H121.695V39.6235H118.038V24.3516H121.695V30.1256H127.919V24.3516H131.538V39.6235H127.919Z" fill="white"/>
<path d="M149.278 39.6235V24.3516H152.896V39.6235H149.278ZM139.202 31.6319V36.2344H140.641C142.47 36.2344 143.404 35.4813 143.404 33.975C143.404 32.4269 142.47 31.6737 140.68 31.6737H139.202V31.6319ZM135.584 39.6235V24.3516H139.202V28.5357H140.953C145.427 28.5357 147.216 30.7532 147.216 33.8495C147.216 37.1549 145.193 39.6654 140.68 39.6654H135.584V39.6235Z" fill="white"/>
<path d="M159.705 30.5435H166.669C166.708 28.6607 165.424 27.1962 163.401 27.1962C161.378 27.2381 160.094 28.3259 159.705 30.5435ZM169.12 38.0749C167.719 39.3301 165.93 39.9577 163.673 39.9577C161.378 39.9577 159.549 39.2046 158.11 37.7402C156.709 36.2757 156.009 34.351 156.009 31.9243C156.009 29.6648 156.709 27.7402 158.071 26.2339C159.433 24.6858 161.261 23.9326 163.556 23.9326C165.424 23.9326 167.019 24.6021 168.342 25.941C169.626 27.2799 170.287 28.9535 170.287 31.0456C170.287 31.8824 170.209 32.5937 170.054 33.1376H159.783C160.055 35.3971 161.767 36.6941 164.062 36.6941C165.657 36.6941 167.019 36.2339 168.069 35.3134L169.12 38.0749Z" fill="white"/>
<path d="M46.8805 39.6235V33.7658H40.6557V39.6235H36.9987V24.3516H40.6557V30.1256H46.8805V24.3516H50.4987V39.6235H46.8805Z" fill="white"/>
<path d="M60.9641 35.1462V33.598C60.3805 33.0959 59.5246 32.8449 58.4742 32.8449C57.1903 32.8449 56.2177 33.5144 56.2177 34.7277C56.2177 35.8575 57.0736 36.5269 58.2408 36.5269C59.4468 36.5269 60.3416 36.0667 60.9641 35.1462ZM53.65 25.439C55.2062 24.4349 56.8791 23.9746 58.6687 23.9746C62.7148 23.9746 64.3488 26.1085 64.3488 30.3344V39.665H61.1975V37.9077C60.3416 39.2466 58.941 39.8742 56.9958 39.8742C54.3503 39.8742 52.5217 38.075 52.5217 35.188C52.5217 31.9662 54.6615 30.2089 57.6961 30.2089C58.98 30.2089 60.0693 30.5436 60.9252 31.2131C61.003 28.5353 60.3027 27.28 58.2797 27.28C57.2292 27.28 55.9843 27.6148 54.5448 28.3261L53.65 25.439Z" fill="white"/>
<path d="M69.7565 24.3516L69.5231 29.1214C69.2897 32.8034 68.4338 35.0629 67.5778 35.7323C67.2666 35.9834 66.9554 36.1089 66.6052 36.1507V39.9583C70.5735 39.9164 72.2075 38.2428 73.0245 29.9164L73.1024 28.2846H76.8761V39.6654H80.4943V24.3516H69.7565Z" fill="white"/>
<path d="M2.21821 27.6984H2.29602C3.19083 27.6984 3.96893 28.2841 4.31908 29.2046C5.2917 31.7569 7.6649 33.5561 10.4272 33.4306C13.6174 33.2632 16.224 30.4599 16.3796 27.0289C16.5352 23.1795 13.6952 19.9996 10.1159 19.9996C7.47038 19.9996 5.2528 21.7569 4.31908 24.2256C3.96893 25.1461 3.15193 25.7318 2.25712 25.7318H2.21821C0.700918 25.7318 -0.388421 24.1419 0.0784388 22.5938C1.63464 17.4892 6.03089 13.7235 11.2442 13.4724L6.92571 5.31344C6.14761 3.849 6.61447 2.008 7.93724 1.17118C9.29891 0.334358 11.0107 0.83645 11.7888 2.30088L16.8854 11.7988L14.7845 3.38875C14.4344 1.96616 15.2125 0.459881 16.5352 0.0833124C17.858 -0.293257 19.2586 0.543563 19.6087 1.96616L21.9819 11.5059V5.98289C21.9819 4.85319 22.8378 3.97452 23.8494 3.97452C24.8998 3.97452 25.7168 4.89503 25.7168 5.98289V25.7737C25.7168 25.8155 25.7168 25.8574 25.7168 25.8992C25.7168 33.6816 19.8421 40.0415 12.5669 40.0415C12.2946 40.0415 12.0612 40.0415 11.7888 40.0415C6.34213 40.0415 1.67354 36.2339 0.0784388 30.9201C-0.349516 29.3302 0.700918 27.6984 2.21821 27.6984Z" fill="white"/>
<path d="M42.9121 16.7365C45.1686 16.7365 46.8026 14.9792 46.8026 12.3432C46.8026 9.79089 45.1686 7.99173 42.9121 7.99173C40.7335 7.99173 39.0605 9.74905 39.0605 12.3432C39.0605 14.8955 40.6946 16.7365 42.9121 16.7365ZM35.17 12.3432C35.17 10.0001 35.8703 8.07541 37.2709 6.61098C38.7104 5.06286 40.5778 4.35156 42.9121 4.35156C45.2075 4.35156 47.075 5.1047 48.5144 6.61098C49.9539 8.11725 50.6542 10.0001 50.6542 12.3432C50.6542 14.6863 49.915 16.611 48.5144 18.1173C47.075 19.6235 45.2464 20.3767 42.9121 20.3767C40.6167 20.3767 38.7104 19.6235 37.2709 18.1173C35.8703 16.5691 35.17 14.6863 35.17 12.3432Z" fill="white"/>
<path d="M52.1327 8.57774V4.68652H65.088V8.57774H60.4194V20.0003H56.8013V8.57774H52.1327Z" fill="white"/>
<path d="M88.1975 20.0003H84.5793V4.68652H88.1975V14.3936L94.8503 4.68652H98.4684V20.0003H94.8503V10.2932L88.1975 20.0003Z" fill="white"/>
<path d="M113.991 4.68652V19.9585H110.373V14.7284C109.323 15.3141 108.156 15.607 106.833 15.607C103.254 15.607 101.698 13.5568 101.698 9.58192V4.68652H105.588V9.12167C105.588 11.0045 106.366 11.925 107.883 11.925C108.895 11.925 109.712 11.7158 110.373 11.2974V4.68652H113.991Z" fill="white"/>
<path d="M127.919 20.0003V14.1426H121.695V20.0003H118.038V4.68652H121.695V10.4606H127.919V4.68652H131.538V20.0003H127.919Z" fill="white"/>
<path d="M149.278 20.0003V4.68652H152.896V19.9585H149.278V20.0003ZM139.202 12.0087V16.6112H140.641C142.47 16.6112 143.404 15.8581 143.404 14.3518C143.404 12.8037 142.47 12.0505 140.68 12.0505H139.202V12.0087ZM135.584 20.0003V4.68652H139.202V8.87062H140.953C145.427 8.87062 147.216 11.0882 147.216 14.1844C147.216 17.4899 145.193 20.0003 140.68 20.0003H135.584Z" fill="white"/>
<path d="M159.705 10.9204H166.669C166.708 9.0376 165.424 7.57317 163.401 7.57317C161.378 7.57317 160.094 8.70288 159.705 10.9204ZM169.12 18.4518C167.719 19.7071 165.93 20.3347 163.673 20.3347C161.378 20.3347 159.549 19.5815 158.11 18.1171C156.709 16.6527 156.009 14.728 156.009 12.3012C156.009 10.0418 156.709 8.1171 158.071 6.61083C159.433 5.06271 161.261 4.30957 163.518 4.30957C165.385 4.30957 166.98 4.97903 168.303 6.31794C169.587 7.65685 170.248 9.33049 170.248 11.4225C170.248 12.2594 170.17 12.9707 170.015 13.5146H159.744C160.016 15.774 161.728 17.0711 164.023 17.0711C165.618 17.0711 166.98 16.6108 168.031 15.6903L169.12 18.4518Z" fill="white"/>
<path d="M69.4842 4.68652L69.2508 9.4564C69.0173 13.1384 68.1614 15.3978 67.3055 16.0673C66.9943 16.3183 66.683 16.4438 66.3329 16.4857V20.2932C70.3012 20.2514 71.9352 18.5777 72.7522 10.2514L72.83 8.61958H76.6038V20.0003H80.222V4.68652H69.4842Z" fill="white"/>
</g>
<defs>
<clipPath id="clip0_268_2716">
<rect width="170.287" height="40" fill="white"/>
</clipPath>
</defs>
</svg>
