<svg width="183" height="39" viewBox="0 0 183 39" fill="none" xmlns="http://www.w3.org/2000/svg">
<path d="M94.7979 38.5925H90.91V23.7204H94.7979V33.1326L101.946 23.7204H105.834V38.5925H101.946V29.1803L94.7979 38.5925Z" fill="#808080"/>
<path d="M122.513 23.7204V38.5925H118.625V33.4586C117.496 34.029 116.242 34.3143 114.822 34.3143C110.975 34.3143 109.303 32.3177 109.303 28.4468V23.7204H113.484V28.0394C113.484 29.873 114.278 30.7694 115.95 30.7694C117.037 30.7694 117.914 30.5656 118.625 30.1582V23.7204H122.513Z" fill="#808080"/>
<path d="M137.478 38.5925V32.8881H130.789V38.5925H126.86V23.7204H130.789V29.3432H137.478V23.7204H141.365V38.5925H137.478Z" fill="#808080"/>
<path d="M160.427 38.5925V23.7204H164.315V38.5925H160.427ZM149.6 30.8101V35.2922H151.147C153.111 35.2922 154.115 34.5587 154.115 33.0919C154.115 31.5843 153.111 30.8509 151.189 30.8509H149.6V30.8101ZM145.712 23.7204H149.6V27.7949H151.481C156.289 27.7949 158.212 29.9545 158.212 32.9697C158.212 36.1886 156.038 38.6333 151.189 38.6333H145.712V23.7204Z" fill="#808080"/>
<path d="M171.63 29.7507H179.112C179.154 27.9172 177.774 26.4911 175.601 26.4911C173.427 26.5318 172.048 27.5912 171.63 29.7507ZM181.746 37.085C180.241 38.3074 178.318 38.9185 175.894 38.9185C173.427 38.9185 171.463 38.1851 169.916 36.759C168.411 35.3329 167.658 33.4586 167.658 31.0953C167.658 28.895 168.411 27.0207 169.874 25.5539C171.337 24.0463 173.302 23.3129 175.768 23.3129C177.774 23.3129 179.489 23.9648 180.91 25.2687C182.289 26.5725 183 28.2024 183 30.2396C183 31.0546 182.916 31.7473 182.75 32.277H171.714C172.006 34.4772 173.845 35.7404 176.312 35.7404C178.026 35.7404 179.489 35.2922 180.617 34.3958L181.746 37.085Z" fill="#808080"/>
<path d="M50.4046 38.5925V32.8881H43.7163V38.5925H39.7869V23.7204H43.7163V29.3432H50.4046V23.7204H54.2922V38.5925H50.4046Z" fill="#808080"/>
<path d="M65.537 34.2327V32.7252C64.9099 32.2362 63.9903 31.9917 62.8616 31.9917C61.4822 31.9917 60.4371 32.6437 60.4371 33.8253C60.4371 34.9254 61.3568 35.5773 62.6108 35.5773C63.9067 35.5773 64.8681 35.1291 65.537 34.2327ZM57.6782 24.7797C59.3502 23.8019 61.1477 23.3537 63.0706 23.3537C67.418 23.3537 69.1737 25.4316 69.1737 29.547V38.6333H65.7877V36.9219C64.8681 38.2258 63.3632 38.837 61.2732 38.837C58.4306 38.837 56.466 37.085 56.466 34.2735C56.466 31.136 58.7651 29.4247 62.0255 29.4247C63.405 29.4247 64.5755 29.7507 65.4952 30.4027C65.5788 27.7949 64.8263 26.5725 62.6526 26.5725C61.524 26.5725 60.1863 26.8985 58.6396 27.5912L57.6782 24.7797Z" fill="#808080"/>
<path d="M74.984 23.7204L74.7332 28.3654C74.4823 31.951 73.5627 34.1512 72.6431 34.8032C72.3087 35.0477 71.9742 35.17 71.598 35.2107V38.9185C75.8618 38.8778 77.6175 37.2479 78.4953 29.1395L78.5789 27.5504H82.6334V38.6333H86.5213V23.7204H74.984Z" fill="#808080"/>
<path d="M2.41643 26.98H2.50004C3.46148 26.98 4.29752 27.5504 4.67373 28.4468C5.71878 30.9324 8.26872 32.6844 11.2366 32.5621C14.6643 32.3992 17.4651 29.6692 17.6323 26.328C17.7995 22.5795 14.7479 19.4828 10.9022 19.4828C8.05968 19.4828 5.67697 21.1941 4.67373 23.5981C4.29752 24.4945 3.41968 25.0649 2.45823 25.0649H2.41643C0.786161 25.0649 -0.38429 23.5166 0.117332 22.009C1.7894 17.038 6.51301 13.3709 12.1144 13.1264L7.47445 5.18101C6.63842 3.7549 7.14004 1.96209 8.56131 1.14718C10.0244 0.332263 11.8637 0.821211 12.6997 2.24731L18.1758 11.4966L15.9184 3.3067C15.5422 1.92135 16.3782 0.454501 17.7995 0.0877886C19.2208 -0.278923 20.7257 0.535992 21.1018 1.92135L23.6517 11.2114V5.83294C23.6517 4.7328 24.5714 3.87714 25.6583 3.87714C26.7869 3.87714 27.6647 4.77355 27.6647 5.83294V25.1056C27.6647 25.1465 27.6647 25.1872 27.6647 25.2279C27.6647 32.8066 21.3526 39 13.5357 39C13.2431 39 12.9923 39 12.6997 39C6.84743 39 1.83121 35.2921 0.117332 30.1174C-0.342489 28.569 0.786161 26.98 2.41643 26.98Z" fill="#808080"/>
<path d="M46.1408 16.3046C48.5653 16.3046 50.321 14.5933 50.321 12.0263C50.321 9.54086 48.5653 7.78876 46.1408 7.78876C43.7999 7.78876 42.0024 9.50012 42.0024 12.0263C42.0024 14.5118 43.7581 16.3046 46.1408 16.3046ZM37.8222 12.0263C37.8222 9.74455 38.5747 7.87026 40.0795 6.44416C41.6262 4.93656 43.6327 4.24388 46.1408 4.24388C48.6071 4.24388 50.6136 4.97731 52.1603 6.44416C53.7069 7.911 54.4593 9.74455 54.4593 12.0263C54.4593 14.3081 53.6651 16.1824 52.1603 17.6492C50.6136 19.1161 48.6489 19.8495 46.1408 19.8495C43.6745 19.8495 41.6262 19.1161 40.0795 17.6492C38.5747 16.1417 37.8222 14.3081 37.8222 12.0263Z" fill="#808080"/>
<path d="M56.0478 8.35921V4.56985H69.9678V8.35921H64.9516V19.4828H61.064V8.35921H56.0478Z" fill="#808080"/>
<path d="M94.7979 19.4828H90.91V4.56985H94.7979V14.0229L101.946 4.56985H105.834V19.4828H101.946V10.0298L94.7979 19.4828Z" fill="#808080"/>
<path d="M122.513 4.56985V19.442H118.625V14.3489C117.496 14.9193 116.242 15.2045 114.822 15.2045C110.975 15.2045 109.303 13.208 109.303 9.33709V4.56985H113.484V8.88888C113.484 10.7224 114.32 11.6188 115.95 11.6188C117.037 11.6188 117.914 11.4151 118.625 11.0077V4.56985H122.513Z" fill="#808080"/>
<path d="M137.478 19.4828V13.7784H130.789V19.4828H126.86V4.56985H130.789V10.1928H137.478V4.56985H141.365V19.4828H137.478Z" fill="#808080"/>
<path d="M160.427 19.4828V4.56985H164.315V19.442H160.427V19.4828ZM149.6 11.7004V16.1824H151.147C153.111 16.1824 154.115 15.449 154.115 13.9821C154.115 12.4745 153.111 11.7411 151.189 11.7411H149.6V11.7004ZM145.712 19.4828V4.56985H149.6V8.64445H151.481C156.289 8.64445 158.212 10.804 158.212 13.8191C158.212 17.0381 156.038 19.4828 151.189 19.4828H145.712Z" fill="#808080"/>
<path d="M171.63 10.641H179.112C179.154 8.80741 177.774 7.38129 175.601 7.38129C173.427 7.38129 172.048 8.48142 171.63 10.641ZM181.746 17.9752C180.241 19.1975 178.318 19.8088 175.894 19.8088C173.427 19.8088 171.463 19.0753 169.916 17.6492C168.411 16.2232 167.658 14.3488 167.658 11.9856C167.658 9.78529 168.411 7.91099 169.874 6.44414C171.337 4.93654 173.302 4.20312 175.726 4.20312C177.733 4.20312 179.447 4.85506 180.868 6.15892C182.248 7.46279 182.959 9.09258 182.959 11.1299C182.959 11.9448 182.875 12.6375 182.707 13.1672H171.672C171.964 15.3675 173.804 16.6305 176.27 16.6305C177.983 16.6305 179.447 16.1823 180.575 15.2859L181.746 17.9752Z" fill="#808080"/>
<path d="M74.6913 4.56985L74.4405 9.21487C74.1897 12.8005 73.27 15.0008 72.3504 15.6527C72.016 15.8972 71.6816 16.0194 71.3054 16.0601V19.768C75.5691 19.7273 77.3248 18.0974 78.2027 9.98906L78.2863 8.39994H82.3407V19.4828H86.2285V4.56985H74.6913Z" fill="#808080"/>
</svg>
