<svg width="72" height="72" viewBox="0 0 72 72" fill="none" xmlns="http://www.w3.org/2000/svg">
<path fill-rule="evenodd" clip-rule="evenodd" d="M36.25 7.5C20.3718 7.5 7.5 20.3718 7.5 36.25C7.5 52.1282 20.3718 65 36.25 65C52.1282 65 65 52.1282 65 36.25C65 20.3718 52.1282 7.5 36.25 7.5ZM0.5 36.25C0.5 16.5058 16.5058 0.5 36.25 0.5C55.9942 0.5 72 16.5058 72 36.25C72 55.9942 55.9942 72 36.25 72C16.5058 72 0.5 55.9942 0.5 36.25Z" fill="#F6A607"/>
<path fill-rule="evenodd" clip-rule="evenodd" d="M36.25 23.625C30.7617 23.625 26.3125 28.0742 26.3125 33.5625C26.3125 39.0508 30.7617 43.5 36.25 43.5C41.7383 43.5 46.1875 39.0508 46.1875 33.5625C46.1875 28.0742 41.7383 23.625 36.25 23.625ZM19.3125 33.5625C19.3125 24.2082 26.8957 16.625 36.25 16.625C45.6043 16.625 53.1875 24.2082 53.1875 33.5625C53.1875 42.9168 45.6043 50.5 36.25 50.5C26.8957 50.5 19.3125 42.9168 19.3125 33.5625Z" fill="#F6A607"/>
<path fill-rule="evenodd" clip-rule="evenodd" d="M36.2506 50.498C32.4302 50.498 28.6845 51.5559 25.4285 53.5544C22.1726 55.5529 19.5336 58.414 17.8042 61.8205C16.9291 63.5441 14.8225 64.2319 13.0989 63.3569C11.3754 62.4818 10.6875 60.3752 11.5625 58.6516C13.8772 54.0925 17.4091 50.2633 21.7667 47.5886C26.1243 44.9139 31.1375 43.498 36.2506 43.498C41.3636 43.498 46.3768 44.9139 50.7344 47.5886C55.0921 50.2633 58.6239 54.0925 60.9386 58.6516C61.8136 60.3752 61.1258 62.4818 59.4022 63.3569C57.6786 64.2319 55.572 63.5441 54.6969 61.8205C52.9675 58.414 50.3285 55.5529 47.0726 53.5544C43.8167 51.5559 40.0709 50.498 36.2506 50.498Z" fill="#F6A607"/>
</svg>
