<svg width="16" height="28" viewBox="0 0 16 28" fill="none" xmlns="http://www.w3.org/2000/svg">
<path d="M0.586881 1.2721C0.211939 1.64715 0.00130742 2.15577 0.0013074 2.6861C0.00130738 3.21642 0.211939 3.72504 0.586881 4.1001L10.4869 14.0001L0.58688 23.9001C0.222564 24.2773 0.020975 24.7825 0.0255316 25.3069C0.0300883 25.8313 0.240426 26.3329 0.611242 26.7037C0.982058 27.0746 1.48368 27.2849 2.00808 27.2894C2.53247 27.294 3.03767 27.0924 3.41488 26.7281L14.7289 15.4141C15.1038 15.039 15.3145 14.5304 15.3145 14.0001C15.3145 13.4698 15.1038 12.9612 14.7289 12.5861L3.41488 1.2721C3.03982 0.897154 2.53121 0.686523 2.00088 0.686523C1.47055 0.686523 0.961936 0.897154 0.586881 1.2721Z" fill="#F6A607"/>
</svg>
