<svg width="25" height="26" viewBox="0 0 25 26" fill="none" xmlns="http://www.w3.org/2000/svg">
<path fill-rule="evenodd" clip-rule="evenodd" d="M12.5 0.5C5.59659 0.5 0 6.09659 0 13C0 19.9034 5.59659 25.5 12.5 25.5C19.4034 25.5 25 19.9034 25 13C25 6.09659 19.4034 0.5 12.5 0.5ZM17.9182 10.8864C18.018 10.7723 18.0939 10.6395 18.1416 10.4956C18.1892 10.3518 18.2077 10.1999 18.1958 10.0488C18.1839 9.89779 18.1419 9.75064 18.0722 9.61605C18.0026 9.48147 17.9068 9.36216 17.7904 9.26516C17.674 9.16816 17.5394 9.09541 17.3944 9.05121C17.2495 9.007 17.0972 8.99223 16.9465 9.00776C16.7957 9.02329 16.6496 9.0688 16.5168 9.14163C16.3839 9.21445 16.2669 9.31312 16.1727 9.43182L11.2864 15.2943L8.75795 12.7648C8.54363 12.5578 8.25659 12.4432 7.95864 12.4458C7.66068 12.4484 7.37567 12.5679 7.16498 12.7786C6.95429 12.9893 6.83478 13.2743 6.83219 13.5723C6.8296 13.8702 6.94414 14.1573 7.15114 14.3716L10.5602 17.7807C10.6719 17.8923 10.8056 17.9794 10.9527 18.0364C11.0999 18.0935 11.2574 18.1193 11.4151 18.1121C11.5728 18.1049 11.7272 18.065 11.8686 17.9948C12.0101 17.9247 12.1353 17.8258 12.2364 17.7045L17.9182 10.8864Z" fill="#39AF5C"/>
</svg>
